#!OML:ASF X:\für Bonn\!DataBase\2005_08_12_Daniel\c3d\Daniel.ASF
:FULLY-SPECIFIED
:DEGREES
219
root -0.245291 16.5934 0.927119 174.786 -6.08742 -181.792
lowerback 58.2578 -3.11588 14.695
upperback 12.5229 -2.89494 -1.9139
thorax -6.91218 -3.80952 -6.92367
lowerneck 3.54638 -3.95417 -2.94043
upperneck 9.12169 -5.79503 -0.805462
head 2.32967 -3.16928 0.172729
rclavicle 3.02153e-014 -1.03368e-014
rhumerus 177.483 -170.927 -262.65
rradius 13.5767
rwrist 21.5117
rhand -20.2382 17.4349
rfingers 7.12502
rthumb 6.10988 -12.457
lclavicle 3.02153e-014 -1.03368e-014
lhumerus -20.9504 5.64494 87.7275
lradius 29.5669
lwrist -10.0238
lhand -12.7414 -6.74878
lfingers 7.12502
lthumb 13.3425 22.804
rfemur -25.4967 -0.477318 15.3338
rtibia 52.7477
rfoot -23.6179 -7.16641
rtoes -13.6405
lfemur -28.5795 -3.76136 -20.6324
ltibia 56.7707
lfoot -21.8974 -9.30998
ltoes -6.03217
220
root -0.229348 16.6636 0.89356 174.645 -5.98697 -181.562
lowerback 57.4316 -3.00929 14.5404
upperback 12.512 -2.85172 -1.90983
thorax -6.89744 -3.75442 -6.91304
lowerneck 3.50482 -3.79009 -3.06468
upperneck 9.22345 -5.58241 -0.787807
head 2.37261 -3.07204 0.198741
rclavicle -1.82882e-014 1.23246e-014
rhumerus 176.324 -170.499 -262.962
rradius 13.5482
rwrist 21.8278
rhand -20.2287 17.5393
rfingers 7.12502
rthumb 6.11906 -12.3523
lclavicle -1.82882e-014 1.23246e-014
lhumerus -20.9746 6.31943 87.3647
lradius 29.2998
lwrist -10.9491
lhand -12.7843 -6.35952
lfingers 7.12502
lthumb 13.3011 23.196
rfemur -24.4053 -0.390112 15.696
rtibia 51.3297
rfoot -23.2702 -7.25236
rtoes -13.4433
lfemur -27.6316 -3.98553 -20.3299
ltibia 55.666
lfoot -21.7011 -8.99581
ltoes -6.34759
221
root -0.213537 16.7306 0.85731 174.51 -5.89134 -181.367
lowerback 56.5849 -2.89683 14.3472
upperback 12.4894 -2.81378 -1.90203
thorax -6.89115 -3.70047 -6.87965
lowerneck 3.50781 -3.62481 -3.19107
upperneck 9.26882 -5.36775 -0.776322
head 2.38856 -2.97292 0.225357
rclavicle -5.56597e-015 -5.52621e-014
rhumerus 175.148 -170.153 -263.229
rradius 13.5369
rwrist 22.0139
rhand -20.1599 17.6159
rfingers 7.12502
rthumb 6.18544 -12.2738
lclavicle -5.56597e-015 -5.52621e-014
lhumerus -21.0126 7.00934 87.0105
lradius 29.0184
lwrist -11.835
lhand -12.8238 -6.03397
lfingers 7.12502
lthumb 13.2631 23.524
rfemur -23.3353 -0.312625 16.0225
rtibia 49.9472
rfoot -22.9365 -7.3511
rtoes -13.3572
lfemur -26.6811 -4.24741 -20.0717
ltibia 54.5808
lfoot -21.5314 -8.64542
ltoes -6.59051
222
root -0.196946 16.7937 0.820341 174.388 -5.7921 -181.191
lowerback 55.7441 -2.78106 14.1138
upperback 12.4449 -2.77997 -1.88401
thorax -6.90528 -3.64896 -6.81383
lowerneck 3.4397 -3.4421 -3.37925
upperneck 9.37941 -5.13096 -0.748199
head 2.44065 -2.86619 0.265432
rclavicle -2.38542e-015 1.07344e-014
rhumerus 174.031 -169.78 -263.444
rradius 13.4724
rwrist 22.2205
rhand -20.0418 17.6748
rfingers 7.12502
rthumb 6.29948 -12.2115
lclavicle -2.38542e-015 1.07344e-014
lhumerus -21.0604 7.7474 86.6633
lradius 28.7834
lwrist -12.7573
lhand -12.8077 -5.59634
lfingers 7.12502
lthumb 13.2785 23.9607
rfemur -22.2977 -0.224159 16.3246
rtibia 48.6005
rfoot -22.6189 -7.44864
rtoes -13.2749
lfemur -25.7511 -4.52406 -19.8284
ltibia 53.5173
lfoot -21.3502 -8.29943
ltoes -6.67469
